<?xml version="1.0" encoding="utf-8"?>
<!-- Generator: Adobe Illustrator 17.0.2, SVG Export Plug-In . SVG Version: 6.00 Build 0)  -->
<!DOCTYPE svg PUBLIC "-//W3C//DTD SVG 1.1//EN" "http://www.w3.org/Graphics/SVG/1.1/DTD/svg11.dtd">
<svg version="1.1" id="Layer_1" xmlns="http://www.w3.org/2000/svg" xmlns:xlink="http://www.w3.org/1999/xlink" x="0px" y="0px"
	 width="792px" height="612px" viewBox="0 0 792 612" enable-background="new 0 0 792 612" xml:space="preserve">
<circle fill="#FDB500" cx="395.8" cy="305.3" r="305.5"/>
<g>
	<g>
		<path fill="#FFFFFF" d="M530.7,412.9H294.3c-3.2,0-5.8-2.6-5.8-5.8V236.4c0-3.2,2.6-5.8,5.8-5.8h236.5c3.2,0,5.8,2.6,5.8,5.8
			v170.8C536.5,410.4,534,412.9,530.7,412.9z M300.1,401.3h224.8V242.2H300.1V401.3z"/>
	</g>
	<path fill="#FFFFFF" d="M508.8,208.7c0-3.2-2.6-5.8-5.8-5.8H265.4c-3.2,0-5.8,2.6-5.8,5.8v170.3c0,3.2,2.6,5.8,5.8,5.8H503
		c3.2,0,5.8-2.6,5.8-5.8V208.7z"/>
	<g>
		<path fill="#FDB500" d="M452.3,354.9l-58.5-61.3c-1.3-1.3-3.6-1.5-5.1-0.2l-21.5,20.3l-24.5-25.1c-0.7-0.7-1.7-1-2.7-1
			c-1,0-2,0.7-2.7,1.5l-55.6,66.9c-0.8,1-1,2.9-0.3,4.1c0.7,1.2,1.8,2.4,3.2,2.4l0,0h165.1c1.3,0,2.7-1.8,3.4-3.2
			C453.5,358,453.1,356.2,452.3,354.9z"/>
	</g>
	<g>
		<circle fill="#FDB500" cx="458.5" cy="272.5" r="20.6"/>
	</g>
</g>
</svg>
